<svg xmlns="http://www.w3.org/2000/svg" viewBox="0 0 48 48">
  <path fill="#0288D1" d="M42 37a5 5 0 0 1-5 5H11a5 5 0 0 1-5-5V11a5 5 0 0 1 5-5h26a5 5 0 0 1 5 5v26z"/>
  <path fill="#FFF" d="M12 19h5v17h-5V19zm2.485-2C13.11 17 12 15.87 12 14.485 12 13.11 13.11 12 14.485 12c1.375 0 2.485 1.108 2.485 2.485C16.97 15.87 15.86 17 14.485 17zM36 36h-5v-9.364c0-2.238-.045-5.116-3.118-5.116-3.12 0-3.598 2.436-3.598 4.954V36h-5V19h4.8v2.318h.068c.67-1.268 2.304-2.604 4.742-2.604C33.82 18.714 36 21.026 36 25.632V36z"/>
</svg>
